# xmcd
#
# Track frame offsets:
#	150
#	9458
#	19726
#	30662
#	41875
#	53943
#	66499
#	78837
#	91350
#	104416
#	116904
#	128687
#	139030
#	147956
#	164307
#	178153
#
# Disc length: 2519 seconds
#
# Revision: 0
# Processed by: cddbd v1.5.2PL0 Copyright (c) Steve Scherf et al.
# Submitted via: EasyCDDAExtractor 16.0.1.1
#
DISCID=df09d510
DTITLE=Johnny Copeland - I'll Be Around
DYEAR=1900
DGENRE=Blues
TTITLE0=Rock and Roll Lilly
TTITLE1=Year Round Blues
TTITLE2=It Don't Bother You
TTITLE3=Mama Told Me
TTITLE4=Heebie Jeebies
TTITLE5=Just One More Time
TTITLE6=Working Man's Blues
TTITLE7=Funky Feeling
TTITLE8=I'll Be Around
TTITLE9=Ain't Nobody's Business (But Mine)
TTITLE10=That's All Right Little Mama
TTITLE11=Trying To Reach My Goal
TTITLE12=Hear What I Said
TTITLE13=Ghetto Child
TTITLE14=Do Better Somewhere Else
TTITLE15=You Must Believe In Yourself
EXTD=
EXTT0=
EXTT1=
EXTT2=
EXTT3=
EXTT4=
EXTT5=
EXTT6=
EXTT7=
EXTT8=
EXTT9=
EXTT10=
EXTT11=
EXTT12=
EXTT13=
EXTT14=
EXTT15=
PLAYORDER=
